# xmcd
# 
# Track frame offsets:
#     150
#     20167
#     40167
#     57807
#     71735
#     87870
#     104782
#     123892
#     136737
#     149200
#     174630
# 
# Disc length: 2758
# 
# Revision: 1
# Processed by: cddbd v1.5.2PL0 Copyright (c) Steve Scherf et al.
# Submitted via: fre:ac v1.0.17
# 
DISCID=a40ac40b
DTITLE=Eric Clapton - Backtrackin' [CD1]
DYEAR=0
DGENRE=
TTITLE0=I Shot The Sheriff
TTITLE1=Knockin' On Heaven's Door
TTITLE2=Lay Down Sally
TTITLE3=Promises
TTITLE4=Swing Low Sweet Chariot
TTITLE5=Wonderful Tonight
TTITLE6=Sunshine Of Your Love
TTITLE7=Tales Of Brave Ulysses
TTITLE8=Badge
TTITLE9=Little Wing
TTITLE10=Layla
EXTD=
EXTT0=
EXTT1=
EXTT2=
EXTT3=
EXTT4=
EXTT5=
EXTT6=
EXTT7=
EXTT8=
EXTT9=
EXTT10=
PLAYORDER=
